<svg xmlns="http://www.w3.org/2000/svg" viewBox="0 0 48 48" width="24" height="24" fill="none" stroke="#000000" stroke-width="2" stroke-linecap="round" stroke-linejoin="round" style="opacity:1;"><path fill="none"    d="M30.996 24.053a2.603 2.603 0 0 1-2.452-2.608c0-1.442 1.16-2.612 2.592-2.612s2.593 1.17 2.593 2.612c0 .289-.048.575-.14.849m-19.177-.001a2.6 2.6 0 0 1-.14-.848a2.6 2.6 0 0 1 2.592-2.612h0a2.6 2.6 0 0 1 2.592 2.612a2.603 2.603 0 0 1-2.454 2.608"/><rect width="39" height="19.544" x="4.5" y="14.228" fill="none"    rx="1" ry="1"/><path fill="none"    d="M4.5 15.527s16.821 4.408 19.5 4.408c2.475 0 19.5-4.408 19.5-4.408m-15.698 10.69L43.5 15.528m-39-.001l15.67 10.67M4.5 32.492s16.821-7.319 19.5-7.319c2.475 0 19.5 7.319 19.5 7.319"/></svg>
